<?xml version="1.0" encoding="utf-8"?>
<!-- Generator: Adobe Illustrator 17.0.0, SVG Export Plug-In . SVG Version: 6.00 Build 0)  -->
<!DOCTYPE svg PUBLIC "-//W3C//DTD SVG 1.1//EN" "http://www.w3.org/Graphics/SVG/1.1/DTD/svg11.dtd">
<svg version="1.1" id="Layer_1" xmlns="http://www.w3.org/2000/svg" xmlns:xlink="http://www.w3.org/1999/xlink" x="0px" y="0px"
	 width="144px" height="144px" viewBox="0 0 144 144" enable-background="new 0 0 144 144" xml:space="preserve">
<path fill-rule="evenodd" clip-rule="evenodd" fill="#FFFF00" d="M93.254,72.314l42.653-42.653c5.866-5.866,5.866-15.376,0-21.242
	l-0.337-0.337c-5.866-5.866-15.376-5.866-21.242,0L71.675,50.734L29.022,8.081c-5.866-5.866-15.376-5.866-21.242,0L7.443,8.419
	c-5.866,5.866-5.866,15.376,0,21.242l42.653,42.653L7.443,114.967c-5.866,5.866-5.866,15.376,0,21.242l0.337,0.337
	c5.866,5.866,15.376,5.866,21.242,0l42.653-42.653l42.653,42.653c5.866,5.866,15.376,5.866,21.242,0l0.337-0.337
	c5.866-5.866,5.866-15.376,0-21.242L93.254,72.314z"/>
</svg>
