<?xml version="1.0" encoding="UTF-8" standalone="no"?>
<svg width="208px" height="58px" viewBox="0 0 208 58" version="1.1" xmlns="http://www.w3.org/2000/svg" xmlns:xlink="http://www.w3.org/1999/xlink">
    <!-- Generator: Sketch 3.7 (28169) - http://www.bohemiancoding.com/sketch -->
    <title>RecordSighting</title>
    <desc>Created with Sketch.</desc>
    <defs></defs>
    <g id="Page-1" stroke="none" stroke-width="1" fill="none" fill-rule="evenodd">
        <g id="Group-2-Copy">
            <path d="M0,7.00367475 C0,3.13565199 3.12819171,1.66118684e-13 7.00718821,1.65053689e-13 L200.031673,1.12057978e-13 C203.901636,1.10995463e-13 207.038861,3.12842115 207.038861,7.00367475 L207.038861,29.320544 C207.038861,33.1885668 203.90434,36.3242188 200.038563,36.3242188 L134.004234,36.3242188 C132.345041,36.3242188 129.939568,37.1606535 128.645143,38.181654 L105.095608,56.7567631 C104.22511,57.4433839 103.846684,57.1635653 104.24982,56.1331746 L110.908675,39.1135734 C111.511397,37.5730554 110.664163,36.3242188 109.004271,36.3242188 L7.00610161,36.3242188 C3.13673853,36.3242188 0,33.1957976 0,29.320544 L0,7.00367475 Z" id="Rectangle-5-Copy-10" fill-opacity="0.889039855" fill="#070858"></path>
            <g id="Group" transform="translate(30.000000, 11.000000)">
                <path d="M2.94693953,2.79833984 L5.37076765,2.79833984 C6.73209578,2.79833984 7.5621739,3.56201172 7.5621739,4.80712891 C7.5621739,6.07714844 6.78190047,6.80761719 5.42057234,6.80761719 L2.94693953,6.80761719 L2.94693953,2.79833984 Z M2.94693953,8.50927734 L5.32096297,8.50927734 L7.67008406,13 L10.1188145,13 L7.50406843,8.17724609 C8.93180281,7.66259766 9.76188093,6.34277344 9.76188093,4.765625 C9.76188093,2.46630859 8.1847325,1.02197266 5.66959578,1.02197266 L0.805337965,1.02197266 L0.805337965,13 L2.94693953,13 L2.94693953,8.50927734 Z M16.205414,5.37158203 C17.4422304,5.37158203 18.255707,6.23486328 18.2972109,7.57958984 L14.0223085,7.57958984 C14.1136171,6.25146484 14.9768984,5.37158203 16.205414,5.37158203 L16.205414,5.37158203 Z M18.3138124,10.5014648 C18.0149843,11.1738281 17.3094179,11.5473633 16.2884218,11.5473633 C14.9353945,11.5473633 14.0638124,10.6010742 14.0140077,9.09033203 L14.0140077,8.98242188 L20.3558046,8.98242188 L20.3558046,8.31835938 C20.3558046,5.45458984 18.8035585,3.73632812 16.2137148,3.73632812 C13.5823671,3.73632812 11.9471132,5.57080078 11.9471132,8.49267578 C11.9471132,11.4145508 13.5574648,13.1826172 16.2303163,13.1826172 C18.3719179,13.1826172 19.8743593,12.1533203 20.264496,10.5014648 L18.3138124,10.5014648 Z M30.8003142,6.97363281 C30.5844939,5.06445312 29.1733611,3.73632812 26.8408416,3.73632812 C24.1098846,3.73632812 22.5078338,5.48779297 22.5078338,8.43457031 C22.5078338,11.4228516 24.1181853,13.1826172 26.8491424,13.1826172 C29.1484588,13.1826172 30.5761932,11.9042969 30.8003142,10.003418 L28.8413299,10.003418 C28.6255096,10.949707 27.9116424,11.4560547 26.8408416,11.4560547 C25.4380096,11.4560547 24.5913299,10.34375 24.5913299,8.43457031 C24.5913299,6.55029297 25.4297088,5.46289062 26.8408416,5.46289062 C27.9697478,5.46289062 28.6504119,6.09375 28.8413299,6.97363281 L30.8003142,6.97363281 Z M37.218945,11.4560547 C35.7829098,11.4560547 34.9611325,10.3603516 34.9611325,8.45947266 C34.9611325,6.56689453 35.7829098,5.46289062 37.218945,5.46289062 C38.6466793,5.46289062 39.4684567,6.56689453 39.4684567,8.45947266 C39.4684567,10.3603516 38.6549801,11.4560547 37.218945,11.4560547 L37.218945,11.4560547 Z M37.218945,13.1826172 C39.9333004,13.1826172 41.5851559,11.40625 41.5851559,8.45947266 C41.5851559,5.52099609 39.9249997,3.73632812 37.218945,3.73632812 C34.5211911,3.73632812 32.852734,5.52929688 32.852734,8.45947266 C32.852734,11.40625 34.4962887,13.1826172 37.218945,13.1826172 L37.218945,13.1826172 Z M44.193728,13 L46.2523218,13 L46.2523218,7.75390625 C46.2523218,6.48388672 47.1820093,5.65380859 48.5184351,5.65380859 C48.8670679,5.65380859 49.4149194,5.71191406 49.5726343,5.77001953 L49.5726343,3.86083984 C49.3817163,3.80273438 49.0164819,3.76953125 48.7176538,3.76953125 C47.5472437,3.76953125 46.5677515,4.43359375 46.318728,5.33007813 L46.1776147,5.33007813 L46.1776147,3.91894531 L44.193728,3.91894531 L44.193728,13 Z M54.854058,13.1494141 C56.1157767,13.1494141 57.1616752,12.5600586 57.6763236,11.5639648 L57.8174369,11.5639648 L57.8174369,13 L59.8096244,13 L59.8096244,0.407714844 L57.7510306,0.407714844 L57.7510306,5.36328125 L57.6099173,5.36328125 C57.128472,4.3671875 56.0991752,3.76953125 54.854058,3.76953125 C52.5630423,3.76953125 51.1187064,5.57910156 51.1187064,8.45117188 C51.1187064,11.3398438 52.5547416,13.1494141 54.854058,13.1494141 L54.854058,13.1494141 Z M55.4932181,5.52099609 C56.9043509,5.52099609 57.775933,6.64990234 57.775933,8.45947266 C57.775933,10.2856445 56.9126517,11.3979492 55.4932181,11.3979492 C54.0820853,11.3979492 53.2271048,10.2939453 53.2271048,8.45947266 C53.2271048,6.63330078 54.0903861,5.52099609 55.4932181,5.52099609 L55.4932181,5.52099609 Z M67.6747178,9.74609375 C67.782628,11.9208984 69.6004991,13.2988281 72.3480577,13.2988281 C75.2533311,13.2988281 77.0546007,11.8461914 77.0546007,9.51367188 C77.0546007,7.6875 76.0336046,6.67480469 73.6014757,6.12695312 L72.223546,5.81152344 C70.7377061,5.47119141 70.1317491,4.99804688 70.1317491,4.19287109 C70.1317491,3.171875 71.044835,2.5078125 72.4227647,2.5078125 C73.7342882,2.5078125 74.6639757,3.171875 74.8133897,4.22607422 L76.8636827,4.22607422 C76.7640733,2.16748047 74.9462022,0.723144531 72.4310655,0.723144531 C69.7499132,0.723144531 67.973546,2.16748047 67.973546,4.34228516 C67.973546,6.12695312 68.9945421,7.20605469 71.1693467,7.69580078 L72.7215928,8.05273438 C74.2572374,8.40966797 74.9129991,8.91601562 74.9129991,9.77929688 C74.9129991,10.7836914 73.892003,11.5058594 72.4808702,11.5058594 C70.9618272,11.5058594 69.8993272,10.8168945 69.7665147,9.74609375 L67.6747178,9.74609375 Z M79.8042861,13 L81.854579,13 L81.854579,3.91894531 L79.8042861,3.91894531 L79.8042861,13 Z M80.8252822,2.44140625 C81.5806533,2.44140625 82.0953017,1.95996094 82.0953017,1.30419922 C82.0953017,0.6484375 81.5806533,0.166992188 80.8252822,0.166992188 C80.0782118,0.166992188 79.5552626,0.6484375 79.5552626,1.30419922 C79.5552626,1.95996094 80.0782118,2.44140625 80.8252822,2.44140625 L80.8252822,2.44140625 Z M91.1369793,8.35986328 C91.1369793,10.0947266 90.273698,11.1904297 88.8376629,11.1904297 C87.4016277,11.1904297 86.5881512,10.0947266 86.5881512,8.35986328 C86.5881512,6.625 87.4016277,5.52099609 88.8376629,5.52099609 C90.2653973,5.52099609 91.1369793,6.625 91.1369793,8.35986328 L91.1369793,8.35986328 Z M88.8376629,16.453125 C91.4856121,16.453125 93.1623699,15.1333008 93.1623699,13.0332031 L93.1623699,3.91894531 L91.1784832,3.91894531 L91.1784832,5.37158203 L91.0373699,5.37158203 C90.539323,4.38378906 89.4602215,3.76953125 88.2234051,3.76953125 C85.9074871,3.76953125 84.4714519,5.57910156 84.4714519,8.35986328 C84.4714519,11.0908203 85.8991863,12.8671875 88.1902019,12.8671875 C89.4519207,12.8671875 90.4397137,12.3359375 90.9626629,11.3647461 L91.1037762,11.3647461 L91.1037762,13.0830078 C91.1037762,14.2202148 90.2819988,14.8842773 88.870866,14.8842773 C87.7419598,14.8842773 87.011491,14.4858398 86.8786785,13.8632812 L84.811784,13.8632812 C84.9777996,15.4238281 86.5051433,16.453125 88.8376629,16.453125 L88.8376629,16.453125 Z M96.302192,13 L98.3607858,13 L98.3607858,7.72900391 C98.3607858,6.42578125 99.1161569,5.54589844 100.469184,5.54589844 C101.664497,5.54589844 102.295356,6.25146484 102.295356,7.62939453 L102.295356,13 L104.35395,13 L104.35395,7.13964844 C104.35395,4.98144531 103.175239,3.75292969 101.232856,3.75292969 C99.8798288,3.75292969 98.9086373,4.3671875 98.4769967,5.38818359 L98.3275827,5.38818359 L98.3275827,0.407714844 L96.302192,0.407714844 L96.302192,13 Z M107.983518,1.69433594 L107.983518,3.97705078 L106.547483,3.97705078 L106.547483,5.62060547 L107.983518,5.62060547 L107.983518,10.5761719 C107.983518,12.3359375 108.813596,13.0415039 110.897092,13.0415039 C111.29553,13.0415039 111.677366,13 111.976194,12.9418945 L111.976194,11.331543 C111.72717,11.3564453 111.569456,11.3730469 111.278928,11.3730469 C110.415647,11.3730469 110.033811,10.9746094 110.033811,10.078125 L110.033811,5.62060547 L111.976194,5.62060547 L111.976194,3.97705078 L110.033811,3.97705078 L110.033811,1.69433594 L107.983518,1.69433594 Z M114.593067,13 L116.64336,13 L116.64336,3.91894531 L114.593067,3.91894531 L114.593067,13 Z M115.614063,2.44140625 C116.369434,2.44140625 116.884082,1.95996094 116.884082,1.30419922 C116.884082,0.6484375 116.369434,0.166992188 115.614063,0.166992188 C114.866993,0.166992188 114.344043,0.6484375 114.344043,1.30419922 C114.344043,1.95996094 114.866993,2.44140625 115.614063,2.44140625 L115.614063,2.44140625 Z M119.725076,13 L121.78367,13 L121.78367,7.71240234 C121.78367,6.37597656 122.555643,5.52929688 123.784158,5.52929688 C125.037576,5.52929688 125.618631,6.2265625 125.618631,7.61279297 L125.618631,13 L127.677225,13 L127.677225,7.12304688 C127.677225,4.95654297 126.573221,3.73632812 124.54783,3.73632812 C123.194803,3.73632812 122.281717,4.35888672 121.850076,5.37158203 L121.708963,5.37158203 L121.708963,3.91894531 L119.725076,3.91894531 L119.725076,13 Z M136.851715,8.35986328 C136.851715,10.0947266 135.988434,11.1904297 134.552399,11.1904297 C133.116363,11.1904297 132.302887,10.0947266 132.302887,8.35986328 C132.302887,6.625 133.116363,5.52099609 134.552399,5.52099609 C135.980133,5.52099609 136.851715,6.625 136.851715,8.35986328 L136.851715,8.35986328 Z M134.552399,16.453125 C137.200348,16.453125 138.877106,15.1333008 138.877106,13.0332031 L138.877106,3.91894531 L136.893219,3.91894531 L136.893219,5.37158203 L136.752106,5.37158203 C136.254059,4.38378906 135.174957,3.76953125 133.938141,3.76953125 C131.622223,3.76953125 130.186188,5.57910156 130.186188,8.35986328 C130.186188,11.0908203 131.613922,12.8671875 133.904938,12.8671875 C135.166656,12.8671875 136.154449,12.3359375 136.677399,11.3647461 L136.818512,11.3647461 L136.818512,13.0830078 C136.818512,14.2202148 135.996734,14.8842773 134.585602,14.8842773 C133.456695,14.8842773 132.726227,14.4858398 132.593414,13.8632812 L130.52652,13.8632812 C130.692535,15.4238281 132.219879,16.453125 134.552399,16.453125 L134.552399,16.453125 Z" id="Record-Sighting" fill="#FFFFFF"></path>
                <polyline id="Rectangle-14" stroke="#FFFFFF" stroke-width="2" opacity="0.6" transform="translate(158.071068, 7.071068) rotate(-315.000000) translate(-158.071068, -7.071068) " points="153.071068 2.07106781 153.071068 2.07106781 163.071068 2.07106781 163.071068 12.0710678"></polyline>
            </g>
        </g>
    </g>
</svg>